<?xml version="1.0" encoding="UTF-8"?>
<svg id="Laag_5" data-name="Laag 5" xmlns="http://www.w3.org/2000/svg" viewBox="0 0 640.32 332.73">
  <defs>
    <style>
      .cls-1 {
        stroke-linecap: round;
      }

      .cls-1, .cls-2 {
        fill: none;
        stroke: #1d1d1b;
      }

      .cls-1, .cls-2, .cls-3 {
        stroke-miterlimit: 10;
      }

      .cls-4 {
        fill: #f3a6c9;
      }

      .cls-3 {
        stroke: #020202;
      }

      .cls-3, .cls-5 {
        fill: #f7d1e5;
      }

      .cls-6 {
        fill: #1d1d1b;
      }
    </style>
  </defs>
  <path class="cls-5" d="M305.76,94.63C35.18,103.8,37.93,309.25,37.93,309.25l536.09-.21s2.75-205.45-267.82-214.62"/>
  <path class="cls-4" d="M1.62,251.29c2.95,6.05,8.78,10.17,15.39,11.38,11.84,2.17,37.18,4.49,80.54-2.03,59-8.88,37.26-38.24,9.24-39.52-4.72-.21-9.23-2-12.86-5.04-10.36-8.67-32.92-22.61-51.11,.79-3.18,4.09-7.68,6.97-12.76,8.03-13.14,2.75-36.41,10.05-28.44,26.38Z"/>
  <path class="cls-4" d="M532.76,145.75c-2.95,6.05-8.78,10.17-15.39,11.38-11.84,2.17-37.18,4.49-80.54-2.03-59-8.88-37.26-38.24-9.24-39.52,4.72-.21,9.23-2,12.86-5.04,10.36-8.67,32.92-22.61,51.11,.79,3.18,4.09,7.68,6.97,12.76,8.03,13.14,2.75,36.41,10.05,28.44,26.38Z"/>
  <path class="cls-4" d="M638.7,319.1c-2.95,6.05-8.78,10.17-15.39,11.38-11.84,2.17-37.18,4.49-80.54-2.03-59-8.88-37.26-38.24-9.24-39.52,4.72-.21,9.23-2,12.86-5.04,10.36-8.67,32.92-22.61,51.11,.79,3.18,4.09,7.68,6.97,12.76,8.03,13.14,2.75,36.41,10.05,28.44,26.38Z"/>
  <g>
    <path class="cls-3" d="M246.14,152.64s48.84,28.89,123.13,0"/>
    <path class="cls-3" d="M369.27,152.64s31.64,74.98,19.95,96.99c0,0-14.45,27.52-41.27,20.64-16.29-4.18-19.9-18-20.22-28.21-.28-8.85,5.41-16.98,13.94-19.35,7.14-1.98,15.56-.26,20.72,14.53"/>
    <path class="cls-3" d="M246.15,153.58c3.84-4.74,20.03,65.56-10.31,98.49,0,0-22.09,21.86-45.58,7.19-14.27-8.91-13.53-23.17-10.75-33,2.41-8.52,10.29-14.55,19.14-14.22,7.4,.27,14.91,4.46,15.36,20.12"/>
  </g>
  <path class="cls-1" d="M213.88,231.6s-7.9-5.63-18.35-5.48c-5.33,.07-11.33,1.65-17.27,6.25,0,0,16.66,13.76,35.62-.76Z"/>
  <circle class="cls-2" cx="195.92" cy="232.13" r="5.89"/>
  <path class="cls-6" d="M196,235.01c3.22,0,3.22-5,0-5s-3.22,5,0,5h0Z"/>
  <path class="cls-6" d="M195.99,234.77c.19-.02,.37-.01,.56,0l-.66-.09c.25,.03,.49,.1,.73,.2l-.6-.25c.22,.1,.43,.22,.62,.36l-.51-.39c.19,.15,.36,.31,.51,.5l-.39-.51c.14,.18,.25,.37,.34,.58l-.25-.6s.03,.07,.04,.11c.08,.33,.23,.61,.45,.85,.18,.27,.41,.49,.7,.64,.29,.18,.6,.28,.93,.3,.33,.07,.66,.06,1-.04,.6-.2,1.19-.57,1.49-1.15l.25-.6c.12-.44,.12-.89,0-1.33-.13-.34-.26-.68-.44-.99s-.41-.59-.63-.85c-.32-.39-.75-.71-1.17-.98-.13-.08-.26-.15-.4-.22-.31-.14-.65-.3-.99-.39s-.73-.13-1.09-.17c-.16-.02-.32-.01-.48,0-.34-.01-.67,.06-.96,.22-.31,.1-.58,.27-.8,.52-.24,.23-.42,.49-.52,.8-.16,.3-.23,.62-.22,.96,.03,.65,.24,1.32,.73,1.77,.46,.43,1.11,.79,1.77,.73h0Z"/>
  <path class="cls-6" d="M194.54,229.67c-1.05,.32-1.87,1.03-2.42,1.97-.12,.2-.21,.41-.3,.63-.13,.31-.28,.63-.39,.95-.12,.35-.16,.72-.19,1.09-.12,1.32,.71,2.57,1.8,3.24,.86,.52,1.91,.65,2.89,.55,.44-.05,.9-.08,1.33-.19,.61-.16,1.19-.47,1.64-.92,.61-.6,.9-1.39,.96-2.23,.05-.73-.2-1.38-.49-2.03s-.74-1.33-1.27-1.83c-.33-.31-.7-.6-1.11-.78-.69-.31-1.18-.45-1.95-.51-.48-.03-1.01,.04-1.47,.19-.7,.23-1.16,.51-1.72,.98-.36,.3-.65,.68-.89,1.08s-.45,.89-.53,1.37c-.1,.33-.12,.66-.04,1,.02,.33,.11,.64,.3,.93,.3,.52,.9,1.01,1.49,1.15,.64,.15,1.36,.11,1.93-.25,.51-.33,1.05-.87,1.15-1.49,.03-.17,.07-.33,.13-.49l-.25,.6c.08-.18,.17-.34,.29-.5l-.39,.51c.12-.15,.25-.28,.41-.4l-.51,.39c.14-.1,.28-.18,.44-.25l-.6,.25c.17-.07,.34-.11,.52-.14l-.66,.09c.18-.02,.36-.02,.54,0l-.66-.09c.18,.03,.35,.07,.52,.14l-.6-.25c.17,.07,.32,.16,.47,.27l-.51-.39c.17,.14,.32,.29,.45,.46l-.39-.51c.23,.31,.43,.65,.59,1l-.25-.6c.07,.16,.12,.32,.15,.49l-.09-.66c.01,.09,.01,.18,0,.28l.09-.66c-.01,.07-.03,.13-.05,.2l.25-.6c-.03,.06-.06,.12-.1,.18l.39-.51c-.05,.06-.11,.12-.17,.17l.51-.39c-.07,.05-.14,.08-.21,.12l.6-.25c-.2,.08-.4,.12-.61,.15l.66-.09c-.42,.05-.85,.1-1.27,.05l.66,.09c-.14-.02-.28-.06-.42-.11l.6,.25c-.14-.06-.27-.13-.39-.22l.51,.39c-.08-.07-.15-.14-.22-.23l.39,.51c-.05-.07-.09-.14-.12-.21l.25,.6c-.03-.08-.05-.17-.07-.26l.09,.66c0-.11,0-.2,0-.31l-.09,.66c.05-.26,.14-.5,.24-.74l-.25,.6c.14-.33,.29-.65,.51-.94l-.39,.51c.09-.11,.18-.21,.3-.3l-.51,.39c.08-.06,.16-.11,.25-.15l-.6,.25c.06-.02,.11-.04,.17-.06,.61-.19,1.17-.59,1.49-1.15s.45-1.33,.25-1.93-.57-1.19-1.15-1.49-1.28-.45-1.93-.25h0Z"/>
  <path class="cls-6" d="M195.84,234.56c3.22,0,3.22-5,0-5s-3.22,5,0,5h0Z"/>
  <g>
    <path class="cls-2" d="M362.01,236.64s-7.42-5.69-17.22-5.54c-5,.07-10.63,1.67-16.21,6.32,0,0,15.64,13.91,33.42-.77Z"/>
    <ellipse class="cls-2" cx="345.16" cy="237.18" rx="5.52" ry="5.95"/>
    <path class="cls-6" d="M345.23,240.06c3.22,0,3.22-5,0-5s-3.22,5,0,5h0Z"/>
    <path class="cls-6" d="M345.22,239.82c.17-.02,.34-.01,.5,0l-.66-.09c.22,.03,.43,.09,.63,.17l-.6-.25c.2,.09,.39,.2,.57,.33l-.51-.39c.19,.15,.36,.31,.5,.5l-.39-.51c.14,.18,.25,.38,.35,.59l-.25-.6c.02,.06,.05,.12,.07,.18,.08,.33,.23,.61,.45,.85,.18,.27,.41,.49,.7,.64,.29,.18,.6,.28,.93,.3,.33,.07,.66,.06,1-.04l.6-.25c.38-.22,.67-.52,.9-.9,.3-.57,.47-1.29,.25-1.93-.12-.34-.25-.67-.42-.98-.07-.13-.16-.26-.25-.38-.21-.27-.42-.57-.67-.81s-.55-.46-.84-.66c-.12-.08-.25-.16-.38-.22-.31-.15-.64-.3-.97-.39s-.72-.13-1.05-.16c-.15-.02-.3-.02-.45,0-.34-.01-.67,.06-.96,.22-.31,.1-.58,.27-.8,.52-.24,.23-.42,.49-.52,.8-.16,.3-.23,.62-.22,.96l.09,.66c.12,.42,.33,.79,.64,1.1l.51,.39c.39,.23,.81,.34,1.26,.34h0Z"/>
    <path class="cls-6" d="M343.82,234.71c-1.02,.33-1.84,1.02-2.36,1.97-.4,.73-.71,1.53-.82,2.35-.07,.5-.05,.75,.04,1.29,.06,.31,.19,.62,.33,.9,.29,.58,.78,1.03,1.31,1.38,.82,.54,1.87,.68,2.83,.57,.42-.05,.86-.08,1.27-.19,.61-.17,1.18-.48,1.63-.93,.95-.95,1.18-2.46,.7-3.7-.34-.87-.76-1.68-1.42-2.37-.79-.83-1.86-1.25-2.99-1.33-.46-.03-.96,.03-1.4,.17-.7,.22-1.17,.52-1.73,.99-.36,.3-.66,.71-.88,1.12s-.43,.88-.5,1.36c-.1,.33-.12,.66-.04,1,.02,.33,.11,.64,.3,.93,.3,.52,.9,1.01,1.49,1.15,.64,.15,1.36,.11,1.93-.25l.51-.39c.31-.31,.52-.68,.64-1.1,.03-.19,.07-.36,.14-.54l-.25,.6c.08-.19,.18-.37,.31-.53l-.39,.51c.11-.14,.24-.27,.38-.38l-.51,.39c.13-.09,.27-.17,.41-.23l-.6,.25c.14-.05,.27-.09,.42-.11l-.66,.09c.16-.02,.33-.02,.49,0l-.66-.09c.17,.02,.32,.06,.48,.12l-.6-.25c.16,.07,.3,.15,.43,.25l-.51-.39c.16,.13,.29,.27,.42,.43l-.39-.51c.24,.32,.44,.69,.6,1.06l-.25-.6c.07,.17,.12,.34,.15,.51l-.09-.66c.01,.11,.01,.21,0,.32l.09-.66c-.01,.06-.03,.12-.05,.18l.25-.6c-.03,.08-.07,.14-.12,.21l.39-.51s-.07,.08-.12,.12l.51-.39c-.07,.06-.15,.1-.24,.14l.6-.25c-.2,.08-.4,.12-.61,.15l.66-.09c-.38,.05-.75,.09-1.13,.04l.66,.09c-.13-.02-.26-.06-.39-.11l.6,.25c-.11-.05-.21-.11-.3-.18l.51,.39c-.09-.07-.17-.15-.25-.25l.39,.51c-.05-.06-.08-.13-.12-.2l.25,.6c-.04-.1-.07-.2-.08-.3l.09,.66c0-.1,0-.19,0-.29l-.09,.66c.05-.34,.18-.67,.32-.99l-.25,.6c.12-.27,.25-.54,.42-.77l-.39,.51c.08-.1,.17-.19,.27-.28l-.51,.39c.09-.07,.18-.12,.28-.16l-.6,.25s.07-.03,.1-.04c.62-.2,1.16-.58,1.49-1.15,.31-.54,.45-1.33,.25-1.93s-.57-1.19-1.15-1.49-1.28-.46-1.93-.25h0Z"/>
    <path class="cls-6" d="M345.08,239.6c3.22,0,3.22-5,0-5s-3.22,5,0,5h0Z"/>
  </g>
  <path class="cls-2" d="M187.9,214.44c.75-.15-6.3-4.03-8.03-9.4"/>
  <line class="cls-2" x1="196.04" y1="211.69" x2="196.04" y2="201.02"/>
  <path class="cls-2" d="M206.01,213.87s5.62-.92,8.94-10.43"/>
  <path class="cls-2" d="M335.45,225.56s-10.66-9.52-9.75-14.56"/>
  <line class="cls-2" x1="345.42" y1="221.78" x2="345.42" y2="207.67"/>
  <path class="cls-2" d="M355.17,225.1s8.48-6.08,9.17-14.33"/>
  <path class="cls-1" d="M184.91,240.18s8.83,2.98,21.32,0"/>
  <path class="cls-1" d="M333.77,245.39s9.78,2.25,22.05,0"/>
  <text></text>
  <g>
    <path class="cls-6" d="M102.34,159.8c-.1,1.56-1.11,3.23-3.04,5.01l-6.53,6.03-21.37-23.14,6.15-5.68c1.9-1.76,3.71-2.68,5.42-2.77,1.71-.09,3.42,.77,5.11,2.6l11.79,12.76c1.75,1.9,2.57,3.62,2.47,5.19Zm-19.53-16.85c-.82-.04-1.58,.26-2.28,.91l-4.09,3.78,16.79,18.18,4.06-3.75c.8-.74,1.22-1.48,1.24-2.22,.03-.74-.35-1.52-1.12-2.36l-12.37-13.39c-.67-.73-1.42-1.11-2.24-1.15Z"/>
    <path class="cls-6" d="M104.11,143.37l8.04,10.28-2.96,2.31-19.42-24.8,6.39-5c1.92-1.51,3.73-2.2,5.41-2.09,1.68,.11,3.27,1.13,4.76,3.04l2.66,3.4c2.09,2.67,2.38,5.13,.85,7.39l13.24,7.18-3.23,2.53-12.43-6.84-3.33,2.61Zm-3.1-15.75c-.71-.09-1.5,.2-2.36,.87l-3.84,3,7.21,9.21,3.84-3.01c.86-.67,1.33-1.37,1.4-2.1,.07-.72-.24-1.53-.95-2.43l-3.19-4.08c-.7-.9-1.41-1.39-2.12-1.48Z"/>
    <path class="cls-6" d="M123.22,107.14l1.79,2.75-8.93,5.82,5.63,8.63,8.02-5.23,1.79,2.75-8.02,5.23,6.19,9.5,8.93-5.82,1.79,2.75-12.07,7.87-17.2-26.39,12.07-7.87Z"/>
    <path class="cls-6" d="M146.43,120.92l2.24,7.83-3.39,1.79-8.28-31.25,4.39-2.32,21.06,24.5-3.39,1.79-5.17-6.27-7.44,3.93Zm5.25-6.59l-11.16-13.54,4.95,16.83,6.22-3.29Z"/>
    <path class="cls-6" d="M171.85,105.98l-3.31,1.36-10.63-14.75,10.73,26.14-3.03,1.25-11.97-29.14,5.55-2.28,9.31,13.59-2.89-16.23,5.39-2.21,11.97,29.14-3.11,1.28-10.74-26.14,2.73,18Z"/>
  </g>
  <g>
    <path class="cls-6" d="M249.42,93.86c-.59,1.23-1.83,2.03-3.7,2.42l-6.18,1.28-6.39-30.84,5.81-1.2c1.83-.38,3.29-.13,4.36,.75,1.07,.88,1.87,2.55,2.38,5.02l.52,2.51c.47,2.26,.26,4.08-.64,5.46,1.56,.78,2.6,2.45,3.13,5l.82,3.96c.52,2.53,.49,4.4-.11,5.63Zm-7.54-24.72c-.46-.42-1.09-.56-1.87-.39l-3.49,.72,2.02,9.74,3.49-.72c.64-.13,1.11-.54,1.42-1.21,.31-.68,.37-1.5,.17-2.47l-.69-3.35c-.23-1.12-.58-1.89-1.04-2.31Zm2.96,13.1c-.53-.49-1.14-.66-1.82-.52l-3.8,.79,2.32,11.19,3.77-.78c.78-.16,1.31-.54,1.57-1.13,.26-.59,.28-1.44,.05-2.56l-1-4.8c-.2-.97-.57-1.7-1.1-2.19Z"/>
    <path class="cls-6" d="M261.99,61.45l.51,3.25-7.7,1.21,1.6,10.18,6.92-1.08,.51,3.25-6.92,1.08,1.76,11.2,7.7-1.21,.51,3.25-10.41,1.63-4.88-31.12,10.41-1.63Z"/>
    <path class="cls-6" d="M274.28,83.63l-.41,8.05-2.79,.29,2.07-31.88,3.61-.37,8.44,30.8-2.79,.29-2.01-7.8-6.12,.63Zm5.27-3.94l-4.33-16.83-.78,17.36,5.11-.53Z"/>
    <path class="cls-6" d="M293.26,90.09l-1.19-28.05-5.01,.21-.15-3.42,12.76-.54,.15,3.42-5.01,.21,1.19,28.05-2.74,.12Z"/>
    <path class="cls-6" d="M315.06,88.1c-1.01,1.25-2.44,1.84-4.26,1.79l-4.48-.13,.1-3.42,4.79,.14c.78,.02,1.42-.29,1.92-.93,.5-.64,.77-1.43,.79-2.36l.14-4.68c.03-.9-.12-1.63-.43-2.2-.31-.56-.79-.86-1.44-.88l-.95-.03c-1.56-.04-2.77-.73-3.63-2.06-.87-1.33-1.26-3.24-1.19-5.73l.05-1.71c.08-2.55,.62-4.45,1.63-5.69,1.01-1.25,2.43-1.84,4.26-1.79l4.51,.13-.1,3.42-4.82-.14c-.78-.02-1.42,.29-1.92,.93-.5,.65-.77,1.43-.79,2.36l-.1,3.42c-.03,.93,.16,1.71,.56,2.33,.4,.63,.94,.95,1.61,.97l.95,.03c1.49,.04,2.63,.69,3.43,1.95,.79,1.25,1.16,3.12,1.08,5.61l-.09,2.97c-.07,2.55-.62,4.45-1.63,5.69Z"/>
  </g>
</svg>